<?xml version="1.0" encoding="utf-8"?>
<!-- Generator: Adobe Illustrator 22.1.0, SVG Export Plug-In . SVG Version: 6.00 Build 0)  -->
<svg version="1.1" id="Hex" xmlns="http://www.w3.org/2000/svg" xmlns:xlink="http://www.w3.org/1999/xlink" x="0px" y="0px"
	 width="288.8px" height="54.4px" viewBox="0 0 288.8 54.4" enable-background="new 0 0 288.8 54.4" xml:space="preserve">
<path fill="#003049" d="M45.5,26.9l0-13c0,0,0,0,0,0c0-0.1,0-0.2-0.1-0.2L34.2,7.2L22.9,0.7c0,0-0.1,0-0.1,0c0,0-0.1,0-0.1,0
	L11.4,7.2L0.1,13.7c0,0,0,0,0,0c-0.1,0-0.1,0.1-0.1,0.2l0,13l0,13c0,0,0,0,0,0c0,0,0,0,0,0c0,0.1,0,0.2,0.1,0.2l11.3,6.5l11.3,6.5
	c0,0,0.1,0,0.1,0c0,0,0.1,0,0.1,0l11.3-6.5l11.3-6.5c0.1,0,0.1-0.1,0.1-0.2c0,0,0,0,0,0c0,0,0,0,0,0L45.5,26.9z M22.8,42.8L9,34.9
	L9,19l13.7-7.9L36.5,19l0,15.9L22.8,42.8z"/>
<g>
	<path fill="#333333" d="M87.3,39.1c-0.2,1.9-0.7,3.6-1.4,5.3c-0.7,1.6-1.7,3.1-2.7,4.3c-1.1,1.2-2.3,2.1-3.6,2.8
		c-1.3,0.7-2.5,1-3.8,1c-1.5,0-3-0.4-4.3-1.1c-1.4-0.8-2.6-2.1-3.6-4c-1.1-1.9-1.9-4.5-2.5-7.7c-0.6-3.2-0.9-7.3-0.9-12.2
		c0-4.9,0.3-9,0.9-12.2c0.6-3.2,1.5-5.8,2.5-7.7c1-1.9,2.1-3.2,3.4-4c1.3-0.8,2.6-1.1,3.9-1.1c2.1,0,4.1,1,5.9,3.1
		c1.8,2.1,3.3,5.2,4.5,9.2l0.1,0.2h1.6l0-0.3c-0.1-0.7-0.2-1.5-0.2-2.3c0-0.7-0.1-1.4-0.1-2.2c0-0.8,0-1.6,0-2.4c0-0.7,0-1.5,0-2.2
		c0-0.8,0.1-1.5,0.1-2.2c0-0.7,0.1-1.5,0.2-2.2l0-0.3h-1.4l-0.1,0c-0.8,0.2-1.5,0.7-2.2,1.3c-0.6,0.6-1.1,1.2-1.4,1.8
		c-0.5-0.6-1.2-1.1-1.9-1.6c-0.7-0.5-1.5-1-2.5-1.3c-1-0.4-2.1-0.6-3.3-0.6c-2.1,0-4.3,0.6-6.4,1.7c-2.1,1.1-4,2.8-5.6,5.1
		c-1.6,2.2-3,5.1-4,8.4c-1,3.4-1.5,7.3-1.5,11.8c0,4.5,0.5,8.5,1.5,11.8c1,3.4,2.4,6.2,4.1,8.4c1.7,2.2,3.7,3.9,5.8,5.1
		c2.2,1.1,4.5,1.7,6.8,1.7c1.8,0,3.5-0.4,5.1-1.1c1.6-0.7,3-1.8,4.2-3.2c1.2-1.4,2.2-3,3-4.8c0.8-1.8,1.3-3.9,1.5-6.1l0-0.3h-1.6
		L87.3,39.1z"/>
	<path fill="#333333" d="M115.4,50.8c-0.1,0.3-0.3,0.5-0.4,0.6c-0.2,0.2-0.3,0.3-0.5,0.4c-0.4,0.3-0.8,0.2-1.1-0.2
		c-0.2-0.2-0.3-0.7-0.4-1.3l-1-9.2c-0.2-1.7-0.8-3-1.8-4c-1-1-2-1.7-3.1-2.2c-0.8-0.4-1.7-0.6-2.6-0.8c1.2-0.2,2.4-0.6,3.5-1
		c0.6-0.3,1.3-0.6,1.9-1.1c0.6-0.4,1.2-1,1.7-1.6c0.5-0.6,0.9-1.4,1.2-2.2c0.3-0.8,0.5-1.8,0.5-2.8c0-1.3-0.3-2.5-0.8-3.7
		c-0.5-1.1-1.4-2.1-2.5-3c-1.1-0.9-2.5-1.5-4.2-2c-1.7-0.5-3.6-0.7-5.9-0.7h-10v1l3.1,0.8v33.7l-3.1,0.8v1h11.3v-1L98,51.5V34.9h1.8
		c1.2,0,2.2,0.1,3,0.4c0.8,0.2,1.5,0.6,2,1.1c0.5,0.5,0.9,1.1,1.2,1.9c0.3,0.8,0.5,1.8,0.7,3l1,9.2c0.1,1,0.6,1.8,1.4,2.6
		c0.8,0.7,1.8,1.1,3.1,1.1c0.7,0,1.4-0.1,1.9-0.4c0.5-0.3,1-0.5,1.3-0.8c0.4-0.4,0.7-0.8,1-1.3l0.1-0.2l-0.9-0.9L115.4,50.8z
		 M98,17.6h1.8c2.5,0,4.5,0.7,5.8,2c1.3,1.3,2,3.3,2,5.8c0,2.5-0.7,4.5-2,5.9c-1.3,1.3-3.3,2-5.8,2H98V17.6z"/>
	<polygon fill="#333333" points="133.7,17 137,18.3 130.1,36 123,17.8 126.1,17 126.1,16 114.6,16 114.6,17 117.8,17.8 125.8,38.6 
		125.8,51.5 122.7,52.3 122.7,53.3 134,53.3 134,52.3 130.8,51.5 130.8,38.4 138.6,18.3 142.1,17 142.1,16 133.7,16 	"/>
	<path fill="#333333" d="M162.8,19.5c-1.2-1.1-2.6-1.9-4.4-2.5c-1.7-0.6-3.7-0.9-5.9-0.9h-9.7v1l3.1,0.8v33.7l-3.1,0.8v1h11.3v-1
		l-3.1-0.8V40.2h1.6c2.2,0,4.2-0.3,5.9-0.9c1.7-0.6,3.2-1.5,4.4-2.5c1.2-1.1,2.1-2.4,2.7-3.8c0.6-1.5,0.9-3.1,0.9-4.8
		c0-1.7-0.3-3.4-0.9-4.8C164.9,21.8,164,20.5,162.8,19.5z M151,17.6h1.6c2.7,0,4.8,0.8,6.2,2.4c1.5,1.6,2.2,4.3,2.2,8.1
		c0,3.7-0.7,6.4-2.2,8.1c-1.4,1.6-3.5,2.4-6.2,2.4H151V17.6z"/>
	<path fill="#333333" d="M191.8,17.4c0-0.4,0.1-0.8,0.2-1.1L192,16h-23.4l0,0.3c0,0.3,0.1,0.7,0.1,1.1c0,0.4,0.1,0.8,0.1,1.3
		c0,0.5,0.1,1.1,0.1,1.7c0,0.5,0,0.9-0.1,1.4c0,0.5-0.1,0.9-0.1,1.3c0,0.5-0.1,1-0.1,1.4l0,0.3h0.9l0.1-0.1c0.9-0.9,1.7-2,2.3-3.3
		c0.6-1.2,0.9-2.5,0.9-3.9h5v33.9l-3.1,0.8v1h11.3v-1l-3.1-0.8V17.6h5c0,1.4,0.3,2.7,0.9,3.9c0.6,1.3,1.4,2.4,2.3,3.3l0.1,0.1h0.9
		l0-0.3c-0.1-0.4-0.1-0.9-0.2-1.4c0-0.4-0.1-0.9-0.1-1.3c0-0.5,0-0.9,0-1.4c0-0.7,0-1.2,0-1.7C191.7,18.2,191.8,17.8,191.8,17.4z"/>
	<path fill="#333333" d="M214.8,20.1c-1.2-1.6-2.6-2.8-4-3.6c-3-1.6-6.2-1.6-9.2,0c-1.5,0.8-2.9,2-4,3.6c-1.2,1.6-2.2,3.6-2.9,6.1
		c-0.7,2.4-1.1,5.3-1.1,8.5s0.4,6.1,1.1,8.5c0.7,2.4,1.7,4.5,2.9,6.1c1.2,1.6,2.6,2.8,4,3.6c1.5,0.8,3,1.2,4.6,1.2
		c1.5,0,3.1-0.4,4.6-1.2c1.5-0.8,2.9-2,4-3.6c1.2-1.6,2.1-3.6,2.9-6.1c0.7-2.4,1.1-5.3,1.1-8.5s-0.4-6.1-1.1-8.5
		C216.9,23.7,216,21.7,214.8,20.1z M208.6,52c-1.7,1.1-3.2,1.1-4.9,0c-0.8-0.5-1.6-1.5-2.3-2.8c-0.7-1.4-1.3-3.2-1.7-5.6
		c-0.4-2.3-0.7-5.3-0.7-8.9c0-3.6,0.2-6.6,0.7-8.9c0.4-2.3,1-4.2,1.7-5.6c0.7-1.3,1.5-2.3,2.3-2.8c0.8-0.5,1.6-0.8,2.4-0.8
		c0.8,0,1.6,0.3,2.4,0.8c0.8,0.5,1.6,1.5,2.3,2.8c0.7,1.4,1.3,3.2,1.7,5.6c0.4,2.3,0.7,5.3,0.7,8.9c0,3.6-0.2,6.6-0.7,8.9
		c-0.4,2.3-1,4.2-1.7,5.6C210.2,50.5,209.4,51.4,208.6,52z"/>
	<path fill="#003049" d="M249.7,48h-22.1c1.3-0.9,2.7-2.1,4.1-3.3c1.8-1.5,3.6-3.1,5.4-4.9c1.9-1.8,3.7-3.7,5.4-5.7
		c1.8-2,3.4-4.1,4.7-6.2c1.4-2.1,2.5-4.3,3.4-6.4c0.8-2.1,1.3-4.3,1.3-6.3c0-2.1-0.4-4.1-1.2-6c-0.8-1.9-1.9-3.5-3.3-4.8
		s-3.1-2.5-5.1-3.2c-2-0.8-4.1-1.2-6.4-1.2c-1.8,0-3.5,0.4-5.1,1c-1.6,0.7-3,1.6-4.1,2.8c-1.2,1.2-2.1,2.6-2.8,4.1
		c-0.7,1.6-1,3.3-1,5.1c0,3.4,0.7,5.9,2.2,7.6c1.5,1.7,3.3,2.5,5.4,2.5c0.3,0,0.5,0,0.8,0c0.3,0,0.5-0.1,0.8-0.1
		c0.3-0.1,0.5-0.1,0.7-0.2l0.2-0.1l-1.6-6.3h-0.2c-2.3,0-4-0.4-4.9-1.2c-0.9-0.8-1.4-1.7-1.4-2.9c0-1.3,0.3-2.6,0.9-3.8
		c0.6-1.2,1.4-2.4,2.3-3.3c1-1,2.1-1.8,3.3-2.3c2.5-1.1,5.3-1.1,7.6-0.1c1.1,0.5,2.1,1.3,2.9,2.3c0.8,1.1,1.5,2.5,1.9,4.1
		c0.5,1.7,0.7,3.7,0.7,6.1c0,3.2-0.6,6.3-1.9,9.2c-1.3,2.9-3,5.9-5.2,8.9c-2.2,3-4.8,6.1-7.8,9.2c-3,3.2-6.2,6.7-9.5,10.3l-0.4,0.4
		h33.1V41h-1.6L249.7,48z"/>
	<path fill="#003049" d="M287.4,15.2c-0.9-3.4-2.2-6.2-3.7-8.4c-1.5-2.2-3.3-3.8-5.3-4.9c-3.9-2.1-8.1-2.1-12,0
		c-2,1-3.7,2.7-5.3,4.9c-1.5,2.2-2.8,5-3.7,8.4c-0.9,3.4-1.4,7.5-1.4,12.2s0.5,8.8,1.4,12.2c0.9,3.4,2.2,6.2,3.7,8.4
		c1.5,2.2,3.3,3.8,5.3,4.9c2,1,4,1.6,6,1.6c2,0,4.1-0.5,6-1.6c2-1,3.7-2.7,5.3-4.9c1.5-2.2,2.8-5,3.7-8.4c0.9-3.4,1.4-7.5,1.4-12.2
		S288.4,18.6,287.4,15.2z M281.4,27.4c0,5.1-0.3,9.3-0.9,12.6c-0.6,3.3-1.3,5.9-2.2,7.8c-0.9,1.9-1.8,3.2-2.8,3.9c-2,1.4-4,1.4-6,0
		c-1-0.7-2-2-2.8-3.9c-0.9-1.9-1.6-4.5-2.2-7.8c-0.6-3.3-0.9-7.5-0.9-12.6c0-5.1,0.3-9.3,0.9-12.6c0.6-3.3,1.3-5.9,2.2-7.8
		c0.9-1.9,1.8-3.2,2.8-3.9c1-0.7,2-1.1,3-1.1s2,0.4,3,1.1c1,0.7,2,2,2.8,3.9c0.9,1.9,1.6,4.5,2.2,7.8
		C281.1,18,281.4,22.3,281.4,27.4z"/>
</g>
<g>
</g>
<g>
</g>
<g>
</g>
<g>
</g>
<g>
</g>
<g>
</g>
</svg>
