<?xml version="1.0" encoding="utf-8"?>
<!-- Generator: Adobe Illustrator 22.1.0, SVG Export Plug-In . SVG Version: 6.00 Build 0)  -->
<svg version="1.1" id="Layer_1" xmlns="http://www.w3.org/2000/svg" xmlns:xlink="http://www.w3.org/1999/xlink" x="0px" y="0px"
	 viewBox="0 0 841.9 595.3" style="enable-background:new 0 0 841.9 595.3;" xml:space="preserve">
<style type="text/css">
	.st0{display:none;}
	.st1{display:inline;fill:#333362;}
	.st2{display:inline;fill:#337457;}
	.st3{display:inline;}
	.st4{fill:#333333;}
	.st5{fill:#012E48;}
	.st6{display:inline;fill:#333333;}
	.st7{font-family:'Oranienbaum';}
	.st8{font-size:70.3707px;}
	.st9{display:inline;fill:none;stroke:#333333;stroke-width:0.5;stroke-miterlimit:10;}
	.st10{font-size:50.3942px;}
	.st11{fill:#133775;}
</style>
<g id="Measurements" class="st0">
	<rect x="306.3" y="289.2" class="st1" width="9" height="105.7"/>
	<rect x="315.3" y="289.2" class="st2" width="2.3" height="105.7"/>
</g>
<g id="Pre-tweek" class="st0">
	<g class="st3">
		<g>
			<path class="st4" d="M346.8,396.8c-0.2,1.8-0.6,3.5-1.4,5.1c-0.7,1.6-1.6,2.9-2.6,4.1c-1,1.1-2.2,2-3.4,2.7c-1.2,0.6-2.4,1-3.6,1
				c-1.5,0-2.9-0.4-4.2-1.1c-1.3-0.7-2.5-2-3.5-3.8s-1.8-4.3-2.4-7.4s-0.9-7-0.9-11.7s0.3-8.6,0.9-11.7s1.4-5.6,2.4-7.4
				s2.1-3.1,3.3-3.8c1.2-0.7,2.5-1.1,3.7-1.1c2,0,3.9,1,5.7,3c1.8,2,3.2,5,4.3,8.8l0.1,0.2h1.5v-0.3c-0.1-0.7-0.2-1.4-0.2-2.2
				c0-0.6-0.1-1.4-0.1-2.1c0-0.8,0-1.6,0-2.3c0-0.7,0-1.4,0-2.1s0.1-1.4,0.1-2.1s0.1-1.4,0.2-2.1v-0.3h-1.3h-0.1
				c-0.7,0.2-1.5,0.6-2.1,1.3c-0.6,0.6-1,1.1-1.4,1.8c-0.5-0.6-1.1-1.1-1.8-1.5c-0.7-0.5-1.5-0.9-2.4-1.3s-2-0.6-3.2-0.6
				c-2,0-4.1,0.5-6.1,1.6s-3.8,2.7-5.4,4.9c-1.6,2.1-2.9,4.9-3.8,8.1c-1,3.2-1.5,7-1.5,11.4c0,4.3,0.5,8.1,1.5,11.4
				c1,3.2,2.3,6,3.9,8.1c1.6,2.2,3.5,3.8,5.6,4.9s4.3,1.6,6.5,1.6c1.7,0,3.4-0.4,4.9-1.1s2.9-1.7,4.1-3.1c1.2-1.3,2.1-2.9,2.9-4.6
				c0.8-1.8,1.2-3.8,1.4-5.9v-0.3h-1.6V396.8z"/>
			<path class="st4" d="M376,408.1c-0.1,0.2-0.3,0.4-0.4,0.6c-0.2,0.2-0.3,0.3-0.5,0.4c-0.4,0.3-0.7,0.1-1-0.2
				c-0.2-0.2-0.3-0.6-0.4-1.2l-1-8.8c-0.2-1.6-0.7-2.9-1.7-3.8c-0.9-0.9-1.9-1.6-3-2.1c-0.8-0.3-1.6-0.6-2.5-0.8
				c1.2-0.2,2.3-0.6,3.3-1c0.6-0.3,1.2-0.6,1.9-1c0.6-0.4,1.2-0.9,1.6-1.5c0.5-0.6,0.9-1.3,1.1-2.1c0.3-0.8,0.4-1.7,0.4-2.7
				c0-1.2-0.3-2.4-0.8-3.5s-1.3-2.1-2.4-2.9s-2.4-1.5-4-2s-3.5-0.7-5.7-0.7h-9.6v0.9l3,0.8v32.4l-3,0.8v0.9h10.8v-0.9l-3-0.8V393
				h1.8c1.1,0,2.1,0.1,2.9,0.3c0.8,0.2,1.4,0.6,1.9,1c0.5,0.5,0.9,1.1,1.2,1.9c0.3,0.8,0.5,1.7,0.6,2.8l1,8.8
				c0.1,0.9,0.6,1.8,1.3,2.4c0.8,0.7,1.8,1,3,1c0.7,0,1.3-0.1,1.8-0.4c0.5-0.2,0.9-0.5,1.2-0.8c0.4-0.4,0.7-0.8,0.9-1.2l0.1-0.2
				l-0.9-0.9L376,408.1z M359.3,376.2h1.8c2.4,0,4.3,0.7,5.6,1.9s1.9,3.2,1.9,5.6s-0.7,4.3-1.9,5.6s-3.2,1.9-5.6,1.9h-1.8V376.2z"/>
			<polygon class="st4" points="393.6,375.6 396.8,376.9 390.1,393.9 383.3,376.4 386.3,375.7 386.3,374.7 375.2,374.7 375.2,375.7 
				378.3,376.4 386,396.4 386,408.8 383,409.5 383,410.5 393.8,410.5 393.8,409.5 390.8,408.8 390.8,396.2 398.3,376.9 401.6,375.6 
				401.6,374.7 393.6,374.7 			"/>
			<path class="st4" d="M421.6,378c-1.1-1-2.5-1.8-4.2-2.4c-1.6-0.6-3.6-0.9-5.7-0.9h-9.3v0.9l3,0.8v32.4l-3,0.8v0.9h10.8v-0.9
				l-3-0.8v-10.9h1.5c2.1,0,4-0.3,5.7-0.9s3.1-1.4,4.2-2.4s2-2.3,2.6-3.7c0.6-1.4,0.9-3,0.9-4.6c0-1.7-0.3-3.2-0.9-4.6
				S422.7,379,421.6,378z M410.2,376.2h1.5c2.6,0,4.6,0.8,6,2.3c1.4,1.6,2.1,4.2,2.1,7.7c0,3.6-0.7,6.2-2.1,7.7s-3.4,2.3-6,2.3h-1.5
				V376.2z"/>
			<path class="st4" d="M449.4,376c0-0.4,0.1-0.7,0.1-1l0.1-0.3h-22.5v0.3c0,0.3,0.1,0.7,0.1,1.1s0.1,0.8,0.1,1.3s0,1.1,0,1.7
				c0,0.4,0,0.9,0,1.4s-0.1,0.9-0.1,1.3c0,0.5-0.1,0.9-0.1,1.4v0.3h0.9l0.1-0.1c0.9-0.9,1.6-2,2.2-3.2s0.8-2.4,0.9-3.8h4.8V409
				l-3,0.8v0.9h10.8v-0.9l-3-0.8v-32.6h4.8c0,1.3,0.3,2.6,0.9,3.8c0.6,1.2,1.3,2.3,2.2,3.2l0.1,0.1h0.9v-0.3
				c-0.1-0.4-0.1-0.9-0.1-1.3s-0.1-0.8-0.1-1.3s0-0.9,0-1.4c0-0.6,0-1.2,0-1.7C449.3,376.8,449.3,376.4,449.4,376z"/>
			<path class="st4" d="M472.4,378.6c-1.1-1.6-2.5-2.7-3.9-3.5c-2.9-1.5-5.9-1.5-8.8,0c-1.4,0.8-2.7,1.9-3.9,3.5
				c-1.1,1.5-2.1,3.5-2.8,5.8c-0.7,2.3-1,5.1-1,8.2s0.4,5.8,1,8.2c0.7,2.3,1.6,4.3,2.8,5.8c1.1,1.6,2.4,2.7,3.9,3.5
				c1.4,0.8,2.9,1.2,4.4,1.2s3-0.4,4.4-1.2c1.4-0.8,2.7-1.9,3.9-3.5c1.1-1.5,2.1-3.5,2.8-5.8c0.7-2.3,1-5.1,1-8.2s-0.4-5.8-1-8.2
				C474.5,382.1,473.5,380.2,472.4,378.6z M466.5,409.2c-1.6,1-3.1,1-4.7,0c-0.8-0.5-1.5-1.4-2.2-2.7c-0.7-1.3-1.2-3.1-1.6-5.3
				c-0.4-2.2-0.6-5.1-0.6-8.5s0.2-6.3,0.6-8.5s1-4,1.6-5.3c0.7-1.3,1.4-2.2,2.2-2.7c0.8-0.5,1.6-0.8,2.3-0.8c0.8,0,1.5,0.3,2.3,0.8
				s1.5,1.4,2.2,2.7c0.7,1.3,1.2,3.1,1.6,5.3c0.4,2.2,0.6,5.1,0.6,8.5s-0.2,6.3-0.6,8.5s-1,4-1.6,5.3
				C468,407.8,467.3,408.7,466.5,409.2z"/>
			<path class="st4" d="M505.9,405.4h-21.2c1.2-0.9,2.5-2,4-3.2c1.7-1.4,3.4-3,5.2-4.7c1.8-1.7,3.5-3.5,5.2-5.4s3.2-3.9,4.6-5.9
				c1.3-2,2.4-4.1,3.2-6.1c0.8-2.1,1.2-4.1,1.2-6c0-2-0.4-4-1.1-5.8c-0.8-1.8-1.8-3.3-3.2-4.7s-3-2.4-4.9-3.1
				c-1.9-0.8-4-1.1-6.2-1.1c-1.7,0-3.3,0.3-4.9,1c-1.5,0.7-2.8,1.6-4,2.7c-1.1,1.1-2.1,2.5-2.7,4c-0.7,1.5-1,3.1-1,4.9
				c0,3.2,0.7,5.7,2.1,7.3c1.4,1.6,3.1,2.4,5.2,2.4c0.2,0,0.5,0,0.8,0s0.5-0.1,0.8-0.1s0.5-0.1,0.7-0.2l0.2-0.1l-1.5-6h-0.2
				c-2.2,0-3.8-0.4-4.7-1.1c-0.9-0.8-1.4-1.7-1.4-2.8c0-1.3,0.3-2.5,0.8-3.7s1.3-2.3,2.2-3.2c0.9-0.9,2-1.7,3.2-2.2
				c2.4-1.1,5.1-1.1,7.3-0.1c1.1,0.5,2,1.2,2.8,2.2s1.4,2.4,1.9,4s0.7,3.6,0.7,5.8c0,3-0.6,6-1.8,8.8c-1.2,2.8-2.9,5.7-5,8.5
				c-2.1,2.9-4.6,5.9-7.5,8.9c-2.9,3.1-6,6.4-9.1,9.9l-0.4,0.4H509v-11.8h-1.5L505.9,405.4z"/>
			<path class="st4" d="M544.1,373.9c-0.9-3.2-2.1-6-3.6-8.1s-3.2-3.7-5-4.7c-3.8-2-7.8-2-11.6,0c-1.9,1-3.6,2.6-5,4.7
				c-1.5,2.1-2.7,4.8-3.6,8.1c-0.9,3.2-1.3,7.2-1.3,11.7s0.5,8.4,1.3,11.7c0.9,3.2,2.1,6,3.6,8.1s3.2,3.7,5,4.7
				c1.9,1,3.8,1.5,5.8,1.5s3.9-0.5,5.8-1.5c1.9-1,3.6-2.6,5-4.7c1.5-2.1,2.7-4.8,3.6-8.1c0.9-3.2,1.3-7.2,1.3-11.7
				S545,377.2,544.1,373.9z M538.3,385.6c0,4.9-0.3,9-0.8,12.1c-0.6,3.2-1.3,5.7-2.1,7.5s-1.7,3-2.7,3.7c-2,1.4-3.8,1.4-5.8,0
				c-1-0.7-1.9-2-2.7-3.7c-0.8-1.8-1.5-4.3-2.1-7.5s-0.8-7.2-0.8-12.1s0.3-9,0.8-12.1c0.6-3.2,1.3-5.7,2.1-7.5s1.7-3,2.7-3.7
				s2-1,2.9-1s1.9,0.4,2.9,1c1,0.7,1.9,2,2.7,3.7c0.8,1.8,1.5,4.3,2.1,7.5C538,376.6,538.3,380.7,538.3,385.6z"/>
		</g>
		<path class="st5" d="M306.3,385.5v-13l0,0c0-0.1,0-0.2-0.1-0.2l-11.3-6.5l-11.3-6.5h-0.1h-0.1l-11.3,6.5l-11.3,6.5l0,0
			c-0.1,0-0.1,0.1-0.1,0.2v13v13l0,0l0,0c0,0.1,0,0.2,0.1,0.2l11.3,6.5l11.3,6.5h0.1h0.1l11.3-6.5l11.3-6.5c0.1,0,0.1-0.1,0.1-0.2
			l0,0l0,0V385.5z M283.5,401.4l-13.7-7.9v-15.9l13.7-7.9l13.7,7.9v15.9L283.5,401.4z"/>
	</g>
</g>
<g id="Crypto20_ORINGINAL" class="st0">
	<text transform="matrix(1 0 0 1 314.999 317.7031)" class="st6 st7 st8">C</text>
	<text transform="matrix(1 0 0 1 314.999 317.7031)" class="st9 st7 st8">C</text>
	<text transform="matrix(1 0 0 1 349.499 317.7031)" class="st6 st7 st10">RYPTO</text>
	<text transform="matrix(1 0 0 1 349.499 317.7031)" class="st9 st7 st10">RYPTO</text>
	<text transform="matrix(1 0 0 1 479.999 317.7031)" class="st6 st7 st8">20</text>
	<text transform="matrix(1 0 0 1 479.999 317.7031)" class="st9 st7 st8">20</text>
</g>
<g id="Layer_1_copy">
	<g>
		<g>
			<path class="st4" d="M353.5,299c0,4.8,0,8.7,0.3,10.9c0.1,1.5,0.4,2.6,1.9,2.8c0.7,0.1,1.7,0.1,2.2,0.1c0.3,0,0.4,0.1,0.4,0.3
				c0,0.3-0.3,0.4-0.9,0.4c-2.8,0-6-0.1-6.1-0.1s-3.4,0.1-5,0.1c-0.6,0-0.9-0.1-0.9-0.4c0-0.1,0.1-0.3,0.4-0.3c0.4,0,1-0.1,1.5-0.1
				c1-0.1,1.3-1.3,1.5-2.8c0.3-2,0.3-6.1,0.3-10.9v-5.2c0-0.1-0.1-0.3-0.3-0.3h-21.3c-0.1,0-0.3,0-0.3,0.3v5.2c0,4.8,0,8.7,0.3,10.9
				c0.1,1.5,0.4,2.6,1.9,2.8c0.7,0.1,1.7,0.1,2.2,0.1c0.3,0,0.4,0.1,0.4,0.3c0,0.3-0.3,0.4-0.9,0.4c-2.8,0-6-0.1-6.1-0.1
				c-0.1,0-3.4,0.1-5,0.1c-0.6,0-0.9-0.1-0.9-0.4c0-0.1,0.1-0.3,0.4-0.3c0.4,0,1-0.1,1.5-0.1c1-0.1,1.3-1.3,1.5-2.8
				c0.3-2,0.3-6.1,0.3-10.9v-8.9c0-7.9,0-9.2-0.1-10.8c-0.1-1.7-0.4-2.5-2.2-2.9c-0.4-0.1-1.3-0.1-1.7-0.1c-0.1,0-0.4-0.1-0.4-0.3
				c0-0.3,0.3-0.4,0.9-0.4c2.2,0,5.4,0.1,5.7,0.1s3.4-0.1,5-0.1c0.6,0,0.9,0.1,0.9,0.4c0,0.1-0.1,0.3-0.4,0.3c-0.3,0-0.6,0-1.3,0.1
				c-1.3,0.3-1.7,1.2-1.9,2.9c-0.1,1.6-0.1,3.1-0.1,10.8v1c0,0.3,0.1,0.3,0.3,0.3h21.3c0.1,0,0.3,0,0.3-0.3v-1c0-7.9,0-9.2-0.1-10.8
				c-0.1-1.7-0.4-2.5-2.2-2.9c-0.4-0.1-1.3-0.1-1.7-0.1c-0.1,0-0.4-0.1-0.4-0.3c0-0.3,0.3-0.4,0.9-0.4c2.2,0,5.4,0.1,5.7,0.1
				s3.4-0.1,5-0.1c0.6,0,0.9,0.1,0.9,0.4c0,0.1-0.1,0.3-0.4,0.3c-0.3,0-0.6,0-1.3,0.1c-1.3,0.3-1.7,1.2-1.9,2.9
				c-0.1,1.6-0.1,3.1-0.1,10.8v8.9H353.5z"/>
			<path class="st4" d="M371.1,302.4c0-2.3-0.3-3.2-1-4.4c-0.3-0.6-6.3-10.2-7.9-12.4c-1-1.6-2-2.6-2.9-3.1
				c-0.6-0.4-1.5-0.6-1.9-0.6c-0.3,0-0.4-0.1-0.4-0.4s0.1-0.3,0.6-0.3c0.9,0,4.2,0.1,4.4,0.1c0.3,0,2-0.1,3.8-0.1
				c0.4,0,0.6,0.1,0.6,0.3s-0.3,0.3-0.7,0.4c-0.3,0.1-0.6,0.3-0.6,0.7c0,0.6,0.3,1.2,0.6,1.6l8,13.3c0.9-1.7,6.4-10.9,7.3-12.4
				c0.6-1,0.7-1.6,0.7-2.2c0-0.6-0.1-1-0.7-1.2c-0.4-0.1-0.6-0.3-0.6-0.4c0-0.1,0.3-0.3,0.7-0.3c1.2,0,2.8,0.1,3.1,0.1
				c0.3,0,3.5-0.1,4.4-0.1c0.3,0,0.6,0.1,0.6,0.3c0,0.1-0.1,0.4-0.6,0.4c-0.4,0-1.3,0.1-2,0.6c-0.9,0.4-1.3,1-2.2,2
				c-1.5,1.7-7.7,11.8-8.6,13.6c-0.7,1.5-0.6,2.9-0.6,4.2v3.6c0,0.7,0,2.5,0.1,4.2c0.1,1.3,0.4,2,1.7,2.2c0.6,0.1,1.6,0.1,2,0.1
				c0.3,0,0.3,0.1,0.3,0.3s-0.3,0.3-0.7,0.3c-2.5,0-5.2-0.1-5.5-0.1c-0.1,0-3.1,0.1-4.4,0.1c-0.4,0-0.7-0.1-0.7-0.3s0.1-0.3,0.3-0.3
				c0.4,0,0.9-0.1,1.3-0.1c0.9-0.1,1.2-1,1.3-2.2c0.1-1.7,0.1-3.5,0.1-4.2v-3.5H371.1z"/>
			<path class="st4" d="M390.9,293.6c0-6.6,0-7.9-0.1-9.2c-0.1-1.5-0.3-2.2-1.7-2.3c-0.3,0-1.2-0.1-1.5-0.1c-0.1,0-0.3-0.1-0.3-0.3
				c0-0.3,0.1-0.3,0.7-0.3c2,0,4.8,0.1,5.1,0.1c1,0,4.2-0.1,6.3-0.1c5.7,0,7.7,1.7,8.5,2.5c1,0.9,2.2,2.8,2.2,5.1
				c0,6.1-4.7,10.2-11.4,10.2c-0.3,0-1,0-1.3,0c-0.1,0-0.4-0.1-0.4-0.4c0-0.3,0.3-0.4,1.2-0.4c4.8,0,8.2-3.1,8.2-6.9
				c0-1.5-0.1-4.2-2.5-6.4c-2.3-2.3-5-2-6-2c-0.7,0-2,0.1-2.5,0.3c-0.3,0-0.3,0.3-0.3,0.9v17.3c0,4.1,0,7.4,0.1,9.2
				c0.1,1.3,0.4,2,1.7,2.2c0.6,0.1,1.6,0.1,1.9,0.1c0.3,0,0.3,0.1,0.3,0.3s-0.1,0.3-0.7,0.3c-2.5,0-5.2-0.1-5.5-0.1
				c-0.1,0-3.1,0.1-4.4,0.1c-0.4,0-0.7-0.1-0.7-0.3s0.1-0.3,0.3-0.3c0.4,0,1-0.1,1.3-0.1c0.9-0.1,1-1,1.2-2.2
				c0.3-1.7,0.3-5.1,0.3-9.2v-7.9H390.9z"/>
			<path class="st4" d="M415.7,293.6c0-6.6,0-7.9-0.1-9.2c-0.1-1.5-0.3-2.2-1.7-2.3c-0.3,0-1.2-0.1-1.5-0.1c-0.1,0-0.3-0.1-0.3-0.3
				c0-0.3,0.1-0.3,0.7-0.3c2,0,4.8,0.1,5.1,0.1c0.3,0,9.5,0,10.5,0c0.9,0,1.6-0.1,2-0.3c0.1,0,0.4-0.1,0.6-0.1
				c0.1,0,0.1,0.1,0.1,0.4c0,0.3-0.3,0.9-0.3,2c0,0.4-0.1,2.3-0.3,2.8c0,0.1-0.1,0.4-0.4,0.4c-0.3,0-0.3-0.1-0.3-0.6
				c0-0.3,0-1-0.3-1.5c-0.3-0.7-0.7-1-3.2-1.3c-0.7-0.1-5.8-0.1-6.4-0.1c-0.1,0-0.3,0.1-0.3,0.4v11.5c0,0.3,0,0.4,0.3,0.4
				c0.6,0,6.4,0,7.4-0.1s1.7-0.1,2.2-0.6c0.3-0.3,0.4-0.6,0.6-0.6s0.3,0.1,0.3,0.3c0,0.3-0.3,1-0.3,2.3c-0.1,0.9-0.1,2.5-0.1,2.8
				c0,0.3-0.1,0.9-0.4,0.9c-0.1,0-0.3-0.1-0.3-0.4c0-0.4,0-0.9-0.1-1.5c-0.1-0.6-0.6-1.2-2.2-1.3c-1.2-0.1-6-0.1-6.7-0.1
				c-0.3,0-0.3,0.1-0.3,0.3v3.5c0,1.5,0,6.4,0,7.3c0.1,2.9,0.9,3.4,5.2,3.4c1.2,0,3.2,0,4.4-0.4c1.2-0.4,1.7-1.3,2-2.9
				c0.1-0.4,0.1-0.6,0.4-0.6s0.3,0.3,0.3,0.6c0,0.3-0.3,3.2-0.6,4.1c-0.3,1.2-0.7,1.2-2.5,1.2c-3.4,0-5.8-0.1-7.7-0.1
				c-1.9-0.1-3.1-0.1-3.6-0.1c-0.1,0-1,0-1.9,0c-0.9,0-1.9,0.1-2.6,0.1c-0.4,0-0.7-0.1-0.7-0.3s0.1-0.3,0.3-0.3c0.4,0,1-0.1,1.3-0.1
				c0.9-0.1,1-1,1.2-2.2c0.3-1.7,0.3-5.1,0.3-9.2L415.7,293.6L415.7,293.6z"/>
			<path class="st4" d="M439.3,293.6c0-6.6,0-7.9-0.1-9.2c-0.1-1.5-0.3-2.2-1.7-2.3c-0.3,0-1.2-0.1-1.5-0.1c-0.1,0-0.3-0.1-0.3-0.3
				c0-0.3,0.1-0.3,0.7-0.3c2,0,5,0.1,5.2,0.1c0.4,0,4.2-0.1,5.5-0.1c2.8,0,6,0.3,8.2,1.9c1.2,0.7,3.1,2.9,3.1,5.8
				c0,3.2-1.3,6.3-5.4,9.8c3.6,4.5,6.7,8.3,9.2,11.1c2.3,2.5,3.8,2.8,5,2.9c0.9,0.1,1.3,0.1,1.6,0.1c0.3,0,0.4,0.1,0.4,0.3
				c0,0.3-0.3,0.3-1,0.3h-3.1c-2.5,0-3.6-0.3-4.7-0.9c-1.9-1-3.5-3.1-6-6.3c-1.9-2.3-3.8-5.1-4.8-6.3c-0.1-0.1-0.3-0.3-0.6-0.3
				l-5.7-0.1c-0.1,0-0.3,0.1-0.3,0.3v1c0,4.1,0,7.4,0.1,9.2c0.1,1.3,0.4,2,1.7,2.2c0.6,0.1,1.6,0.1,1.9,0.1c0.3,0,0.3,0.1,0.3,0.3
				s-0.1,0.3-0.7,0.3c-2.5,0-5.2-0.1-5.4-0.1c0,0-3.1,0.1-4.4,0.1c-0.4,0-0.7-0.1-0.7-0.3s0.1-0.3,0.3-0.3c0.4,0,1-0.1,1.3-0.1
				c0.9-0.1,1-1,1.2-2.2c0.3-1.7,0.3-5.1,0.3-9.2v-7.4H439.3z M443.1,297.3c0,0.3,0.1,0.4,0.3,0.6c0.6,0.3,2.9,0.6,4.8,0.6
				c1,0,2.2,0,3.4-0.7c1.5-1,2.6-3.2,2.6-6.6c0-5.2-2.9-8.3-7.6-8.3c-1.3,0-2.8,0.1-3.2,0.3c-0.1,0.1-0.3,0.3-0.3,0.4L443.1,297.3
				L443.1,297.3z"/>
			<path class="st4" d="M473,301.1c0,4.1,0,7.4,0.1,9.2c0.1,1.3,0.3,2,1.6,2.2c0.6,0.1,1.6,0.1,2,0.1c0.3,0,0.3,0.1,0.3,0.3
				c0,0.1-0.1,0.3-0.7,0.3c-2.5,0-5.2-0.1-5.5-0.1c-0.3,0-3.1,0.1-4.4,0.1c-0.4,0-0.7-0.1-0.7-0.3c0-0.1,0.1-0.3,0.3-0.3
				c0.4,0,1-0.1,1.3-0.1c0.9-0.1,1-1,1.2-2.2c0.1-1.7,0.3-5.1,0.3-9.2v-7.6c0-6.6,0-7.9-0.1-9.2c-0.1-1.5-0.4-2-1.5-2.3
				c-0.4-0.1-1-0.1-1.3-0.1c-0.1,0-0.3-0.1-0.3-0.3c0-0.3,0.1-0.3,0.7-0.3c1.5,0,4.2,0.1,4.5,0.1c0.1,0,3.1-0.1,4.4-0.1
				c0.4,0,0.7,0.1,0.7,0.3c0,0.1-0.1,0.3-0.3,0.3c-0.3,0-0.6,0-1.2,0.1c-1.2,0.3-1.5,0.9-1.6,2.3c0,1.3,0,2.6,0,9.2v7.6H473z"/>
			<path class="st4" d="M496.2,280.6c9.9,0,17.5,6.1,17.5,16c0,9.5-7.1,17.3-17.6,17.3c-12.1,0-17.2-9-17.2-16.8
				C478.7,290.4,484.1,280.6,496.2,280.6z M497.2,312.3c3.9,0,12-2,12-14.4c0-10.2-6.3-15.6-13.1-15.6c-7.4,0-12.7,4.7-12.7,13.8
				C483.3,306,489.3,312.3,497.2,312.3z"/>
			<path class="st4" d="M520.8,307.6c0.1,3.5,0.4,4.5,1.7,4.8c0.9,0.1,1.7,0.3,2.2,0.3c0.1,0,0.3,0.1,0.3,0.3c0,0.3-0.3,0.3-0.9,0.3
				c-2.5,0-4.2-0.1-4.7-0.1s-2.2,0.1-4.2,0.1c-0.4,0-0.7,0-0.7-0.3c0-0.1,0.1-0.3,0.3-0.3c0.3,0,1.2,0,1.7-0.3
				c1.2-0.3,1.3-1.5,1.3-5.2v-24.5c0-1.7,0.3-2.2,0.6-2.2c0.4,0,1.3,0.9,1.7,1.3c0.7,0.7,7.1,7.6,14,14.6c4.4,4.5,9,9.6,10.5,10.9
				l-0.4-21.4c0-2.8-0.3-3.6-1.6-3.9c-0.9-0.1-1.7-0.1-2.2-0.1c-0.3,0-0.3-0.3-0.3-0.4c0-0.3,0.3-0.3,0.9-0.3c2,0,4.1,0.1,4.7,0.1
				c0.6,0,1.9-0.1,3.8-0.1c0.4,0,0.7,0,0.7,0.3c0,0.1-0.1,0.4-0.4,0.4c-0.1,0-0.6,0-1,0.1c-1.5,0.3-1.6,1.2-1.6,3.6l-0.1,24.9
				c0,2.8,0,3.1-0.3,3.1c-0.4,0-0.9-0.3-3.4-2.6c-0.4-0.4-6.9-6.7-11.5-11.5c-5.1-5.4-10.1-10.6-11.4-12.1L520.8,307.6z"/>
		</g>
	</g>
	<path class="st11" d="M306.2,293v-13l0,0c0-0.1,0-0.1-0.1-0.1l-11.2-6.6l-11.2-6.6h-0.1h-0.1l-11.2,6.6l-11.2,6.6l0,0
		c-0.1,0-0.1,0.1-0.1,0.1v13v13l0,0l0,0c0,0.1,0,0.1,0.1,0.1l11.2,6.6l11.2,6.6h0.1h0.1l11.2-6.6l11.2-6.6c0.1,0,0.1-0.1,0.1-0.1
		l0,0l0,0V293z M269.8,301.1v-15.9l13.7-7.9l13.4,7.7l-2.5,1.5l-11.2,6.6l0,0c-0.1,0-0.1,0.1-0.1,0.1l0,0l0,0v13v2.6L269.8,301.1z"
		/>
</g>
</svg>
