<?xml version="1.0" encoding="utf-8"?>
<!-- Generator: Adobe Illustrator 22.1.0, SVG Export Plug-In . SVG Version: 6.00 Build 0)  -->
<svg version="1.1" id="Outlined-type" xmlns="http://www.w3.org/2000/svg" xmlns:xlink="http://www.w3.org/1999/xlink" x="0px"
	 y="0px" viewBox="0 0 252.3 178.4" enable-background="new 0 0 252.3 178.4" xml:space="preserve">
<g>
	<path fill="#D12129" d="M20.4,104.5V73.9h6.7v30.5H20.4z"/>
	<path fill="#D12129" d="M34.7,76.4v-2.4h6.2l0.5,0.7v10.6L34.7,76.4z"/>
	<path fill="#D12129" d="M41.4,85.2v19.3h-6.7V94L41.4,85.2z"/>
	<path fill="#D12129" d="M102.2,104.5V73.9h6.7v30.5H102.2z"/>
	<path fill="#D12129" d="M84.8,104.7h-5.9L66.5,73.9H74l8,21.5l8-21.5h7.2L84.8,104.7z"/>
	<path fill="#D12129" d="M140.9,101.8c-0.8,0.7-1.8,1.2-2.8,1.7c-1,0.5-2.1,0.8-3.3,1.1c-1.2,0.2-2.5,0.4-4,0.4
		c-2.2,0-4.3-0.4-6.2-1.2c-1.9-0.8-3.6-1.9-5-3.3c-1.4-1.4-2.5-3.1-3.3-5c-0.8-1.9-1.2-4-1.2-6.1v-0.1c0-2.2,0.4-4.2,1.2-6.1
		c0.8-1.9,1.9-3.6,3.3-5c1.4-1.4,3.1-2.6,5-3.4c1.9-0.8,4.1-1.2,6.5-1.2c1.4,0,2.7,0.1,3.9,0.3c1.2,0.2,2.2,0.6,3.2,1
		c1,0.4,1.8,0.9,2.7,1.5s1.6,1.2,2.3,1.9l-4.3,4.9c-1.2-1.1-2.4-1.9-3.6-2.5c-1.2-0.6-2.6-0.9-4.2-0.9c-1.3,0-2.5,0.2-3.6,0.7
		c-1.1,0.5-2,1.2-2.8,2c-0.8,0.9-1.4,1.9-1.8,3c-0.4,1.1-0.7,2.4-0.7,3.7v0.1c0,1.3,0.2,2.5,0.7,3.7c0.4,1.2,1,2.2,1.8,3.1
		c0.8,0.9,1.7,1.6,2.8,2.1c1.1,0.5,2.3,0.8,3.6,0.8c1.7,0,3.2-0.3,4.4-1c1.2-0.6,2.4-1.5,3.6-2.6l4.3,4.3
		C142.5,100.4,141.7,101.1,140.9,101.8z"/>
	<path fill="#D12129" d="M162.5,80.1v24.3h-6.7V80.1h-9.3v-6.2h25.3v6.2H162.5z"/>
	<path fill="#D12129" d="M202.1,97.2c-0.6,1.7-1.5,3.1-2.7,4.3c-1.2,1.1-2.6,2-4.2,2.6s-3.5,0.9-5.5,0.9c-4.1,0-7.3-1.1-9.7-3.4
		c-2.4-2.3-3.5-5.7-3.5-10.2V73.9h6.7v17.3c0,2.5,0.6,4.4,1.7,5.6c1.2,1.3,2.8,1.9,4.8,1.9c2.1,0,3.7-0.6,4.8-1.8
		c1.2-1.2,1.7-3.1,1.7-5.5V73.9h6.7v17.2C203.1,93.5,202.7,95.5,202.1,97.2z"/>
	<path fill="#D12129" d="M231.1,99.5c-0.6,1.2-1.3,2.2-2.3,3c-1,0.8-2.2,1.4-3.5,1.8c-1.4,0.4-2.9,0.6-4.5,0.6
		c-2.3,0-4.6-0.4-6.8-1.2s-4.3-2-6.1-3.7l4-4.8c1.4,1.1,2.8,2,4.3,2.7c1.5,0.7,3.1,1,4.8,1c1.4,0,2.5-0.3,3.2-0.8
		c0.8-0.5,1.2-1.2,1.2-2.1V96c0-0.4-0.1-0.8-0.2-1.2c-0.2-0.3-0.5-0.6-0.9-0.9c-0.5-0.3-1.1-0.6-1.9-0.9c-0.8-0.3-1.8-0.6-3.1-0.9
		c-1.5-0.4-2.9-0.8-4.2-1.3c-1.3-0.5-2.3-1-3.2-1.7c-0.9-0.7-1.6-1.5-2-2.6c-0.5-1-0.7-2.3-0.7-3.8v-0.1c0-1.4,0.3-2.7,0.8-3.8
		c0.5-1.1,1.2-2.1,2.2-2.9c0.9-0.8,2.1-1.4,3.4-1.9c1.3-0.4,2.7-0.7,4.3-0.7c2.2,0,4.3,0.3,6.2,1c1.9,0.7,3.6,1.6,5.2,2.9l-3.5,5.1
		c-1.4-0.9-2.7-1.7-4-2.2c-1.3-0.5-2.6-0.8-3.9-0.8c-1.3,0-2.3,0.3-2.9,0.8c-0.7,0.5-1,1.1-1,1.9v0.1c0,0.5,0.1,0.9,0.3,1.3
		c0.2,0.4,0.5,0.7,1,1c0.5,0.3,1.2,0.6,2,0.8c0.9,0.3,1.9,0.6,3.3,0.9c1.5,0.4,2.9,0.9,4.1,1.4c1.2,0.5,2.2,1.1,3.1,1.8
		c0.8,0.7,1.5,1.5,1.9,2.5c0.4,1,0.6,2.1,0.6,3.4v0.1C232,97,231.7,98.3,231.1,99.5z"/>
	<g>
		<path fill="#D12129" d="M56.1,104.5h5.8V73.9h-6.7v18.8L40.9,73.9h-6.2v2.4L56.1,104.5z"/>
	</g>
</g>
<g>
</g>
<g>
</g>
<g>
</g>
<g>
</g>
<g>
</g>
<g>
</g>
</svg>
